<svg width="16" height="21" viewBox="0 0 16 21" fill="none" xmlns="http://www.w3.org/2000/svg">
<path d="M3.20576 20.8681C2.40266 20.8673 1.63268 20.5479 1.06481 19.98C0.496933 19.4122 0.177552 18.6422 0.176758 17.8391L0.176758 3.71208C0.177817 2.90916 0.497314 2.13944 1.06516 1.57178C1.63301 1.00412 2.40283 0.684876 3.20576 0.684082L12.3468 0.684082C13.1499 0.684611 13.9199 1.00374 14.488 1.57143C15.0561 2.13911 15.3757 2.90899 15.3768 3.71208V17.8391C15.376 18.6422 15.0566 19.4122 14.4887 19.98C13.9208 20.5479 13.1509 20.8673 12.3478 20.8681H3.20576ZM1.24776 3.71208V17.8391C1.24855 18.3581 1.45509 18.8557 1.82212 19.2227C2.18914 19.5897 2.68671 19.7963 3.20576 19.7971H12.3468C12.8658 19.7963 13.3634 19.5897 13.7304 19.2227C14.0974 18.8557 14.304 18.3581 14.3048 17.8391V3.71208C14.304 3.19303 14.0974 2.69547 13.7304 2.32844C13.3634 1.96142 12.8658 1.75488 12.3468 1.75408H3.20576C2.68671 1.75488 2.18914 1.96142 1.82212 2.32844C1.45509 2.69547 1.24855 3.19303 1.24776 3.71208ZM11.5158 18.3741C11.1536 18.3738 10.8064 18.23 10.5501 17.9741C10.2939 17.7182 10.1496 17.3712 10.1488 17.0091V16.1771C10.1493 15.8148 10.2935 15.4675 10.5498 15.2114C10.8061 14.9553 11.1535 14.8113 11.5158 14.8111H12.3458C12.7081 14.8113 13.0555 14.9553 13.3117 15.2114C13.568 15.4675 13.7122 15.8148 13.7128 16.1771V17.0091C13.712 17.3712 13.5676 17.7182 13.3114 17.9741C13.0551 18.23 12.7079 18.3738 12.3458 18.3741H11.5158ZM11.2158 16.1741V17.0061C11.2171 17.0848 11.2493 17.1598 11.3054 17.215C11.3615 17.2702 11.4371 17.3011 11.5158 17.3011H12.3458C12.4245 17.3011 12.5 17.2702 12.5561 17.215C12.6123 17.1598 12.6444 17.0848 12.6458 17.0061V16.1741C12.6458 16.0945 12.6142 16.0182 12.5579 15.962C12.5016 15.9057 12.4253 15.8741 12.3458 15.8741H11.5158C11.4364 15.8751 11.3606 15.9076 11.3051 15.9644C11.2497 16.0212 11.219 16.0977 11.2198 16.1771L11.2158 16.1741ZM7.35676 18.3741C6.99463 18.3738 6.64739 18.23 6.39114 17.9741C6.13489 17.7182 5.99055 17.3712 5.98976 17.0091V16.1771C5.99029 15.8148 6.13451 15.4675 6.39079 15.2114C6.64706 14.9553 6.99446 14.8113 7.35676 14.8111H8.18676C8.54906 14.8113 8.89645 14.9553 9.15273 15.2114C9.409 15.4675 9.55323 15.8148 9.55376 16.1771V17.0091C9.55297 17.3705 9.40918 17.7169 9.15379 17.9727C8.89841 18.2285 8.55219 18.3728 8.19076 18.3741H7.35676ZM7.05676 16.1741V17.0061C7.05807 17.0848 7.09025 17.1598 7.14637 17.215C7.20249 17.2702 7.27805 17.3011 7.35676 17.3011H8.18676C8.26546 17.3011 8.34102 17.2702 8.39714 17.215C8.45326 17.1598 8.48545 17.0848 8.48676 17.0061V16.1741C8.48676 16.1347 8.479 16.0957 8.46392 16.0593C8.44884 16.0229 8.42675 15.9898 8.39889 15.962C8.37103 15.9341 8.33796 15.912 8.30156 15.8969C8.26517 15.8818 8.22615 15.8741 8.18676 15.8741H7.35676C7.27807 15.8762 7.20335 15.9091 7.14873 15.9658C7.0941 16.0225 7.06394 16.0984 7.06476 16.1771L7.05676 16.1741ZM3.19776 18.3741C2.83563 18.3738 2.48839 18.23 2.23214 17.9741C1.97589 17.7182 1.83155 17.3712 1.83076 17.0091V16.1771C1.83129 15.8148 1.97551 15.4675 2.23179 15.2114C2.48806 14.9553 2.83546 14.8113 3.19776 14.8111H4.02776C4.39005 14.8113 4.73745 14.9553 4.99373 15.2114C5.25 15.4675 5.39423 15.8148 5.39476 16.1771V17.0091C5.39397 17.3698 5.25073 17.7157 4.99621 17.9713C4.74169 18.2269 4.39649 18.3717 4.03576 18.3741H3.19776ZM2.89776 16.1741V17.0061C2.89907 17.0848 2.93125 17.1598 2.98737 17.215C3.04349 17.2702 3.11905 17.3011 3.19776 17.3011H4.02776C4.10646 17.3011 4.18202 17.2702 4.23814 17.215C4.29426 17.1598 4.32645 17.0848 4.32776 17.0061V16.1741C4.32776 16.0945 4.29615 16.0182 4.23989 15.962C4.18363 15.9057 4.10732 15.8741 4.02776 15.8741H3.19776C3.11977 15.8772 3.04607 15.9106 2.99229 15.9672C2.93852 16.0237 2.90892 16.099 2.90976 16.1771L2.89776 16.1741ZM11.5048 14.2161C11.1425 14.2158 10.7951 14.0718 10.5388 13.8158C10.2825 13.5597 10.1383 13.2124 10.1378 12.8501V12.0181C10.1386 11.656 10.2829 11.3089 10.5391 11.0531C10.7954 10.7972 11.1426 10.6533 11.5048 10.6531H12.3348C12.6969 10.6533 13.0441 10.7972 13.3004 11.0531C13.5566 11.3089 13.701 11.656 13.7018 12.0181V12.8501C13.7012 13.2124 13.557 13.5597 13.3007 13.8158C13.0445 14.0718 12.6971 14.2158 12.3348 14.2161H11.5048ZM11.2048 12.0161V12.8481C11.2061 12.9268 11.2383 13.0018 11.2944 13.057C11.3505 13.1122 11.4261 13.1431 11.5048 13.1431H12.3348C12.4135 13.1431 12.489 13.1122 12.5451 13.057C12.6013 13.0018 12.6334 12.9268 12.6348 12.8481V12.0161C12.6348 11.9767 12.627 11.9377 12.6119 11.9013C12.5968 11.8649 12.5747 11.8318 12.5469 11.804C12.519 11.7761 12.486 11.754 12.4496 11.7389C12.4132 11.7238 12.3742 11.7161 12.3348 11.7161H11.5048C11.4268 11.72 11.3534 11.7541 11.3002 11.8112C11.2469 11.8684 11.2181 11.944 11.2198 12.0221L11.2048 12.0161ZM7.34576 14.2161C6.98346 14.2158 6.63606 14.0718 6.37979 13.8158C6.12351 13.5597 5.97929 13.2124 5.97876 12.8501V12.0181C5.97954 11.8378 6.01597 11.6594 6.08594 11.4932C6.15592 11.327 6.25806 11.1762 6.3865 11.0497C6.51494 10.9231 6.66713 10.8231 6.83433 10.7556C7.00153 10.6881 7.18044 10.6542 7.36076 10.6561H8.19076C8.55288 10.6563 8.90013 10.8002 9.15637 11.0561C9.41262 11.3119 9.55696 11.659 9.55776 12.0211V12.8531C9.55723 13.2154 9.413 13.5627 9.15673 13.8188C8.90045 14.0748 8.55305 14.2188 8.19076 14.2191L7.34576 14.2161ZM7.04576 12.0161V12.8481C7.04707 12.9268 7.07925 13.0018 7.13537 13.057C7.19149 13.1122 7.26705 13.1431 7.34576 13.1431H8.17576C8.25446 13.1431 8.33002 13.1122 8.38614 13.057C8.44226 13.0018 8.47445 12.9268 8.47576 12.8481V12.0161C8.47576 11.9365 8.44415 11.8602 8.38789 11.804C8.33163 11.7477 8.25532 11.7161 8.17576 11.7161H7.34576C7.26848 11.721 7.19609 11.7555 7.14372 11.8126C7.09135 11.8696 7.06306 11.9447 7.06476 12.0221L7.04576 12.0161ZM3.18676 14.2161C2.82446 14.2158 2.47706 14.0718 2.22079 13.8158C1.96451 13.5597 1.82029 13.2124 1.81976 12.8501V12.0181C1.82053 11.8374 1.85709 11.6587 1.92732 11.4922C1.99754 11.3258 2.10004 11.1749 2.22891 11.0482C2.35777 10.9216 2.51044 10.8217 2.67811 10.7544C2.84577 10.6871 3.0251 10.6537 3.20576 10.6561H4.03576C4.39788 10.6563 4.74513 10.8002 5.00137 11.0561C5.25762 11.3119 5.40196 11.659 5.40276 12.0211V12.8531C5.40223 13.2154 5.258 13.5627 5.00173 13.8188C4.74545 14.0748 4.39805 14.2188 4.03576 14.2191L3.18676 14.2161ZM2.88676 12.0161V12.8481C2.88807 12.9268 2.92025 13.0018 2.97637 13.057C3.03249 13.1122 3.10805 13.1431 3.18676 13.1431H4.01676C4.09546 13.1431 4.17102 13.1122 4.22714 13.057C4.28326 13.0018 4.31545 12.9268 4.31676 12.8481V12.0161C4.31676 11.9365 4.28515 11.8602 4.22889 11.804C4.17263 11.7477 4.09632 11.7161 4.01676 11.7161H3.18676C3.1102 11.7219 3.0388 11.7569 2.98727 11.8139C2.93574 11.8708 2.908 11.9453 2.90976 12.0221L2.88676 12.0161ZM3.18676 9.22808C2.82863 9.22285 2.48683 9.07737 2.23479 8.8229C1.98274 8.56842 1.84055 8.22525 1.83876 7.86708V3.71208C1.83929 3.34979 1.98351 3.00249 2.23979 2.74641C2.49606 2.49032 2.84346 2.34635 3.20576 2.34608H12.3468C12.7091 2.34635 13.0565 2.49032 13.3127 2.74641C13.569 3.00249 13.7132 3.34979 13.7138 3.71208V7.86708C13.7135 8.22972 13.5692 8.57742 13.3127 8.83376C13.0562 9.09009 12.7084 9.23408 12.3458 9.23408L3.18676 9.22808ZM2.88676 3.70608V7.86708C2.88676 7.94665 2.91837 8.02295 2.97463 8.07921C3.03089 8.13548 3.10719 8.16708 3.18676 8.16708H12.3278C12.4073 8.16708 12.4836 8.13548 12.5399 8.07921C12.5962 8.02295 12.6278 7.94665 12.6278 7.86708V3.71208C12.6264 3.63339 12.5943 3.55836 12.5381 3.50318C12.482 3.44799 12.4065 3.41707 12.3278 3.41708H3.20576C3.12775 3.41811 3.0532 3.44949 2.99794 3.50457C2.94268 3.55964 2.91105 3.63407 2.90976 3.71208L2.88676 3.70608Z" fill="white" fill-opacity="0.8"/>
<path d="M11.516 6.73888C11.3742 6.73888 11.2383 6.68265 11.138 6.58253C11.0377 6.48242 10.9812 6.3466 10.981 6.20488V5.37388C10.981 5.23186 11.0374 5.09565 11.1378 4.99522C11.2382 4.8948 11.3744 4.83838 11.5165 4.83838C11.6585 4.83838 11.7947 4.8948 11.8951 4.99522C11.9955 5.09565 12.052 5.23186 12.052 5.37388V6.20488C12.0518 6.27514 12.0379 6.34468 12.0109 6.40954C11.9838 6.4744 11.9443 6.5333 11.8946 6.58289C11.8448 6.63247 11.7857 6.67177 11.7208 6.69854C11.6558 6.7253 11.5862 6.73901 11.516 6.73888Z" fill="white" fill-opacity="0.8"/>
<path d="M9.85385 6.73888C9.71213 6.73888 9.5762 6.68265 9.4759 6.58253C9.3756 6.48242 9.31911 6.3466 9.31885 6.20488V5.37388C9.31885 5.23186 9.37527 5.09565 9.47569 4.99522C9.57612 4.8948 9.71232 4.83838 9.85435 4.83838C9.99637 4.83838 10.1326 4.8948 10.233 4.99522C10.3334 5.09565 10.3898 5.23186 10.3898 5.37388V6.20488C10.3897 6.27514 10.3757 6.34468 10.3487 6.40954C10.3217 6.4744 10.2822 6.5333 10.2324 6.58289C10.1827 6.63247 10.1236 6.67177 10.0587 6.69854C9.9937 6.7253 9.9241 6.73901 9.85385 6.73888Z" fill="white" fill-opacity="0.8"/>
</svg>
