<svg width="44" height="44" viewBox="0 0 44 44" fill="none" xmlns="http://www.w3.org/2000/svg">
<path d="M26.635 38.143C25.2266 36.7351 24.3498 34.8824 24.1542 32.9006C23.9586 30.9187 24.4562 28.9304 25.5622 27.2743C26.6683 25.6182 28.3143 24.3968 30.2199 23.8183C32.1255 23.2397 34.1727 23.3398 36.0128 24.1015C37.8529 24.8631 39.3719 26.2392 40.3111 27.9953C41.2504 29.7514 41.5516 31.7788 41.1636 33.7321C40.7756 35.6855 39.7223 37.4438 38.1833 38.7076C36.6442 39.9714 34.7145 40.6625 32.723 40.663C31.592 40.6664 30.4716 40.4454 29.4266 40.0128C28.3816 39.5803 27.4328 38.9447 26.635 38.143ZM25.113 32.056C25.113 33.561 25.5593 35.0321 26.3954 36.2834C27.2315 37.5347 28.4198 38.5099 29.8102 39.0858C31.2006 39.6617 32.7305 39.8124 34.2065 39.5188C35.6825 39.2252 37.0383 38.5005 38.1024 37.4364C39.1665 36.3723 39.8912 35.0165 40.1848 33.5405C40.4784 32.0645 40.3277 30.5346 39.7518 29.1442C39.1759 27.7538 38.2007 26.5655 36.9494 25.7294C35.6981 24.8933 34.2269 24.447 32.722 24.447C30.7047 24.4494 28.7707 25.2518 27.3443 26.6783C25.9178 28.1047 25.1154 30.0387 25.113 32.056ZM3.53003 37.421C3.39742 37.421 3.27024 37.3684 3.17648 37.2746C3.08271 37.1808 3.03003 37.0536 3.03003 36.921V12.594C3.03003 12.594 3.03003 12.594 3.03003 12.588V12.582C3.03153 12.539 3.03859 12.4963 3.05103 12.455V12.445C3.07528 12.3696 3.1171 12.3011 3.17303 12.245L12.9 2.51704C12.982 2.43022 13.0923 2.37559 13.211 2.36304H31.101C31.2336 2.36304 31.3608 2.41572 31.4546 2.50948C31.5484 2.60325 31.601 2.73043 31.601 2.86304V20.703C31.601 20.8356 31.5484 20.9628 31.4546 21.0566C31.3608 21.1504 31.2336 21.203 31.101 21.203C30.9684 21.203 30.8412 21.1504 30.7475 21.0566C30.6537 20.9628 30.601 20.8356 30.601 20.703V3.36304H26.735V19.081C26.735 19.18 26.7056 19.2767 26.6506 19.3589C26.5956 19.4411 26.5175 19.5052 26.426 19.543C26.3346 19.5808 26.234 19.5906 26.137 19.5712C26.04 19.5518 25.9509 19.5041 25.881 19.434L22.991 16.544L20.101 19.434C20.0312 19.5041 19.9421 19.5518 19.8451 19.5712C19.7481 19.5906 19.6475 19.5808 19.556 19.543C19.4646 19.5052 19.3864 19.4411 19.3314 19.3589C19.2764 19.2767 19.247 19.18 19.247 19.081V3.36304H13.761V12.594C13.761 12.7266 13.7084 12.8538 13.6146 12.9476C13.5208 13.0414 13.3936 13.094 13.261 13.094H4.03003V36.421H21.37C21.5026 36.421 21.6298 36.4737 21.7236 36.5675C21.8174 36.6613 21.87 36.7884 21.87 36.921C21.87 37.0536 21.8174 37.1808 21.7236 37.2746C21.6298 37.3684 21.5026 37.421 21.37 37.421H3.53003ZM23.345 15.484L25.735 17.874V3.36304H20.248V17.874L22.638 15.484C22.7318 15.3903 22.8589 15.3376 22.9915 15.3376C23.1241 15.3376 23.2513 15.3903 23.345 15.484ZM12.761 12.094V4.07004L4.73803 12.094H12.761ZM35.613 35.653L32.37 32.41C32.3234 32.3636 32.2865 32.3084 32.2613 32.2477C32.236 32.1869 32.223 32.1218 32.223 32.056V27.19C32.223 27.0574 32.2757 26.9303 32.3695 26.8365C32.4632 26.7427 32.5904 26.69 32.723 26.69C32.8556 26.69 32.9828 26.7427 33.0766 26.8365C33.1704 26.9303 33.223 27.0574 33.223 27.19V31.848L36.323 34.948C36.3708 34.9942 36.4089 35.0493 36.4351 35.1103C36.4613 35.1713 36.4751 35.2369 36.4757 35.3033C36.4762 35.3697 36.4636 35.4356 36.4384 35.497C36.4133 35.5585 36.3762 35.6143 36.3292 35.6612C36.2823 35.7082 36.2265 35.7453 36.165 35.7704C36.1036 35.7956 36.0377 35.8082 35.9713 35.8077C35.9049 35.8071 35.8393 35.7933 35.7783 35.7671C35.7173 35.7409 35.6622 35.7028 35.616 35.655L35.613 35.653Z" fill="black" fill-opacity="0.8"/>
</svg>
