<svg width="15" height="9" viewBox="0 0 15 9" fill="black" xmlns="http://www.w3.org/2000/svg">
<path fill-rule="evenodd" clip-rule="evenodd" d="M14.7874 0.947369L14.0423 0.202308C13.943 0.102796 13.8287 0.0532227 13.6993 0.0532227C13.5704 0.0532227 13.456 0.102796 13.3567 0.202308L7.49939 6.05944L1.64226 0.202491C1.54293 0.102979 1.4286 0.0534056 1.29945 0.0534056C1.1703 0.0534056 1.05598 0.102979 0.956646 0.202491L0.211585 0.947552C0.112073 1.04688 0.0625 1.16121 0.0625 1.29036C0.0625 1.4195 0.112256 1.53383 0.211585 1.63316L7.15659 8.57835C7.25591 8.67767 7.37024 8.72725 7.49939 8.72725C7.62854 8.72725 7.74268 8.67767 7.84201 8.57835L14.7874 1.63316C14.8867 1.53383 14.9361 1.4195 14.9361 1.29036C14.9361 1.16121 14.8867 1.04688 14.7874 0.947369Z" />
</svg>
