<svg width="20" height="20" viewBox="0 0 20 20" fill="none" xmlns="http://www.w3.org/2000/svg">
<path d="M10 20C15.5228 20 20 15.5228 20 10C20 4.47715 15.5228 0 10 0C4.47715 0 0 4.47715 0 10C0 15.5228 4.47715 20 10 20Z" fill="#389A6E"/>
<path d="M9.12126 14.1256C8.98896 14.1254 8.8591 14.0978 8.73845 14.0435C8.6178 13.9892 8.50987 13.9101 8.42204 13.8111L4.47282 9.37361C4.308 9.18789 4.22382 8.94472 4.23845 8.69685C4.25307 8.44897 4.36543 8.21639 4.55095 8.05134C4.64295 7.96942 4.74903 7.90719 4.8654 7.86677C4.98177 7.82635 5.10571 7.80874 5.22868 7.81599C5.35166 7.82323 5.47138 7.85496 5.5822 7.90876C5.69302 7.96256 5.79341 8.03731 5.87517 8.12946L9.12517 11.7789L14.5509 5.67927C14.7166 5.49391 14.9492 5.38102 15.1974 5.36677C15.4456 5.35252 15.6894 5.43792 15.8752 5.6031C15.9677 5.68471 16.0418 5.7832 16.0959 5.89411C16.1499 6.00503 16.1824 6.12544 16.1896 6.24861C16.1969 6.37177 16.1795 6.4954 16.1388 6.61189C16.0982 6.72838 16.0356 6.83638 15.9533 6.92829L9.82243 13.8179C9.73401 13.9157 9.6247 13.9934 9.50407 14.0465C9.38344 14.0995 9.25305 14.1264 9.12126 14.1256Z" fill="white"/>
</svg>
