<svg width="101" height="101" viewBox="0 0 101 101" fill="none" xmlns="http://www.w3.org/2000/svg">
<path d="M33.0474 51.0965C34.7541 34.3526 46.3739 26.8344 47.7413 26.1511C49.6548 24.2376 49.6777 22.392 49.4496 21.7087L46.3723 15.8996H50.8147C52.0693 14.9883 55.2587 13.029 57.9928 12.4822C60.7269 11.9354 65.0549 14.5338 66.8776 15.8996L70.2951 16.2413L67.9034 20.6837C66.5368 22.871 67.7898 25.2398 68.5868 26.1511C72.4595 29.2285 80.8172 38.5213 83.2807 51.0965C85.7441 63.6718 74.5087 67.4996 68.586 67.8412H49.7913C43.6405 67.8412 31.6768 64.4925 33.0474 51.0965Z" fill="url(#paint0_linear_444_995)"/>
<path d="M48.5264 19.9261C49.5521 21.9777 50.0256 22.6602 49.6831 22.6602H67.4528C67.1798 21.8404 67.9807 20.6087 68.4786 19.9261H48.5264Z" fill="url(#paint1_linear_444_995)"/>
<path d="M67.1112 21.9762H49.3415C48.2093 21.9762 47.2915 22.894 47.2915 24.0262V24.027C47.2915 25.1591 48.2093 26.077 49.3415 26.077H67.1112C68.2434 26.077 69.1612 25.1591 69.1612 24.027V24.0262C69.1612 22.894 68.2434 21.9762 67.1112 21.9762Z" fill="#385A67"/>
<path d="M71.0558 67.5627L58.5137 73.5627L53.3848 76.64L57.4879 77.6658L75.9385 69.1203C75.4761 68.2876 74.7134 67.6629 73.806 67.3734C72.8986 67.084 71.915 67.1516 71.0558 67.5627Z" fill="#FDB22C"/>
<path d="M17.3752 81.3183V65.2372C17.3761 64.9686 17.4561 64.7061 17.6053 64.4827C17.7545 64.2593 17.9662 64.0848 18.214 63.981L27.0673 60.2354C32.3288 57.7751 36.413 59.2096 37.7985 60.2354L56.1443 69.8035C56.7172 70.3177 57.1694 70.9521 57.4686 71.6615C57.7677 72.3708 57.9064 73.1375 57.8747 73.9067C57.8747 76.0939 55.4515 76.7544 54.413 76.984L57.5283 77.3257L75.7959 68.8851C76.6485 68.4893 77.6211 68.4389 78.5101 68.7442C79.3991 69.0496 80.1354 69.6871 80.5649 70.5232C80.9786 71.3441 81.0578 72.2934 80.7859 73.1716C80.5139 74.0497 79.912 74.7881 79.1068 75.2315L55.1051 88.5974L29.1449 78.0043L19.3479 82.5548C19.1382 82.6536 18.9071 82.6981 18.6757 82.6842C18.4443 82.6704 18.2202 82.5986 18.0238 82.4755C17.8274 82.3524 17.6651 82.1819 17.5517 81.9797C17.4384 81.7775 17.3777 81.5501 17.3752 81.3183Z" fill="#FFC73E"/>
<g opacity="0.718">
<path d="M57.4453 77.2919L43.7764 73.229L57.5613 79.4784L57.4453 77.2919Z" fill="#FDB22C"/>
</g>
<path d="M56.1176 72.8865C56.1176 73.5209 55.8656 74.1294 55.417 74.578C54.9684 75.0265 54.3599 75.2786 53.7255 75.2786C53.0911 75.2786 52.4827 75.0265 52.0341 74.578C51.5855 74.1294 51.3335 73.5209 51.3335 72.8865C51.3335 71.5656 52.7459 70.4949 54.0676 70.4949C55.3893 70.4949 56.1176 71.5656 56.1176 72.8865Z" fill="#FFE096"/>
<path d="M52.9913 45.0816C53.3355 45.0884 53.6785 45.0391 54.0068 44.9356C54.2709 44.8542 54.5148 44.7179 54.7225 44.5355C54.909 44.3657 55.0538 44.1551 55.1454 43.9201C55.2398 43.6722 55.2866 43.4088 55.2835 43.1436C55.2979 42.8978 55.2546 42.6521 55.1571 42.426C55.0595 42.1999 54.9104 41.9998 54.7217 41.8417C54.2233 41.5021 53.6241 41.3426 53.0229 41.3895H51.6988V45.0816H52.9913ZM58.3096 50.9119H56.4442C56.2899 50.9224 56.1358 50.889 55.9996 50.8155C55.8635 50.7421 55.7509 50.6316 55.6749 50.4969L53.3385 46.9351C53.2671 46.8167 53.1666 46.7186 53.0465 46.6502C52.9017 46.5853 52.7433 46.5564 52.5849 46.5658H51.6988V50.9112H49.6299V39.7901H53.0229C53.6765 39.7769 54.3288 39.8566 54.96 40.0268C55.4437 40.151 55.8966 40.3737 56.2904 40.681C56.6285 40.949 56.8932 41.2984 57.0597 41.6965C57.2277 42.1064 57.3115 42.546 57.3059 42.989C57.3083 43.3499 57.2512 43.7087 57.137 44.051C57.0332 44.3787 56.873 44.6858 56.6636 44.9585C56.4494 45.2388 56.1893 45.4808 55.8942 45.6741C55.5746 45.8872 55.2245 46.0506 54.8558 46.1586C54.9896 46.2358 55.1136 46.3288 55.2251 46.4356C55.3434 46.5447 55.4469 46.6689 55.5329 46.8049L58.3096 50.9119Z" fill="#FFC73E"/>
<path d="M61.0089 48.8675C61.1945 49.1051 61.4346 49.2945 61.7088 49.4198C61.9724 49.5276 62.255 49.5813 62.5397 49.5776C62.807 49.5828 63.0721 49.5289 63.3162 49.4198C63.5505 49.3092 63.752 49.1395 63.9009 48.9274C64.0788 48.6772 64.2068 48.3951 64.278 48.0965C64.3712 47.7061 64.4152 47.3056 64.409 46.9043C64.4162 46.5113 64.3775 46.1189 64.2938 45.7349C64.2399 45.4556 64.1327 45.1893 63.9782 44.9505C63.852 44.7609 63.6767 44.6093 63.4708 44.5118C63.2609 44.4165 63.0322 44.3693 62.8017 44.3737C62.4487 44.3628 62.0997 44.4508 61.7941 44.6278C61.4934 44.813 61.2278 45.05 61.0097 45.3277L61.0089 48.8675ZM60.9087 44.0976C61.2217 43.7416 61.5938 43.4423 62.0087 43.213C62.4541 42.9789 62.952 42.8623 63.455 42.8745C63.8639 42.8686 64.2682 42.9612 64.6337 43.1445C64.9992 43.3279 65.3151 43.5966 65.5547 43.9279C65.8351 44.3056 66.0388 44.7345 66.1544 45.1904C66.3061 45.7493 66.3786 46.3268 66.3698 46.9058C66.3755 47.4608 66.2957 48.0133 66.1331 48.5439C65.9887 49.0188 65.7564 49.4623 65.4482 49.8514C65.1571 50.2266 64.7821 50.5285 64.3534 50.7328C63.9247 50.9371 63.4541 51.0382 62.9792 51.0279C62.5927 51.038 62.2082 50.9701 61.8485 50.8283C61.5372 50.6907 61.2533 50.498 61.0105 50.2594V53.4898H59.1089V43.0205H60.2704C60.3788 43.0128 60.4866 43.0432 60.575 43.1065C60.6634 43.1697 60.727 43.2618 60.7549 43.3669L60.9087 44.0976Z" fill="#FFC73E"/>
<defs>
<linearGradient id="paint0_linear_444_995" x1="52.6571" y1="23.2173" x2="84.5722" y2="60.2383" gradientUnits="userSpaceOnUse">
<stop stop-color="#0685C7"/>
<stop offset="1" stop-color="#005691"/>
</linearGradient>
<linearGradient id="paint1_linear_444_995" x1="58.5025" y1="18.704" x2="58.5317" y2="34.5619" gradientUnits="userSpaceOnUse">
<stop stop-color="#0685C7"/>
<stop offset="1" stop-color="#005691"/>
</linearGradient>
</defs>
</svg>
