<svg width="24" height="24" viewBox="0 0 24 24" fill="none" xmlns="http://www.w3.org/2000/svg">
<path d="M16.0701 20.5491C16.2356 20.5493 16.3974 20.4996 16.5343 20.4067C16.6713 20.3137 16.7771 20.1817 16.838 20.0278C16.899 19.8739 16.9122 19.7052 16.876 19.5437C16.8398 19.3822 16.7559 19.2353 16.6351 19.1221L9.07309 12.0221L16.6341 4.92608C16.7197 4.85378 16.7897 4.76479 16.8398 4.66454C16.8899 4.56429 16.9191 4.45488 16.9255 4.34299C16.9319 4.2311 16.9155 4.11908 16.8772 4.01375C16.8389 3.90843 16.7795 3.81201 16.7027 3.73039C16.6259 3.64876 16.5333 3.58364 16.4305 3.53899C16.3277 3.49435 16.2169 3.47111 16.1048 3.47071C15.9928 3.47031 15.8818 3.49274 15.7787 3.53665C15.6756 3.58055 15.5825 3.64501 15.5051 3.72608L7.66609 11.0811C7.53507 11.2006 7.43043 11.3462 7.35882 11.5085C7.28722 11.6708 7.25024 11.8462 7.25024 12.0236C7.25024 12.201 7.28722 12.3764 7.35882 12.5387C7.43043 12.7009 7.53507 12.8465 7.66609 12.9661L15.5051 20.3251C15.6579 20.4692 15.8601 20.5493 16.0701 20.5491Z" fill="black" fill-opacity="0.8"/>
</svg>
