<svg width="29" height="30" viewBox="0 0 29 30" fill="none" xmlns="http://www.w3.org/2000/svg">
<path d="M21.7714 29.7531C20.6163 29.5314 19.5518 28.975 18.7104 28.1532C17.8768 27.3436 17.3067 26.3016 17.0744 25.1631C16.8428 24.03 16.9614 22.8533 17.4144 21.7892C17.8702 20.7158 18.6363 19.8032 19.6144 19.1681C20.4369 18.6339 21.3761 18.3059 22.3523 18.2119C23.3285 18.1179 24.313 18.2607 25.2224 18.6281C25.9459 18.9201 26.605 19.3512 27.1624 19.8972C27.7176 20.4355 28.1596 21.0795 28.4624 21.7911C28.7598 22.4894 28.9145 23.2402 28.9174 23.9991C28.9174 24.0082 28.9174 24.0171 28.9174 24.0261C28.9175 25.1844 28.5664 26.3156 27.9104 27.2701C27.248 28.2363 26.3145 28.9848 25.2274 29.4212C24.1323 29.8633 22.9326 29.9786 21.7734 29.7531H21.7714ZM21.9094 21.3792C21.633 21.6474 21.4686 22.0105 21.4494 22.3951V23.6381C21.4492 23.7073 21.4318 23.7753 21.3988 23.836C21.3658 23.8968 21.3182 23.9484 21.2604 23.9861C21.2857 24.128 21.3228 24.2675 21.3714 24.4032C21.465 24.4849 21.5396 24.5862 21.5899 24.6998C21.6402 24.8135 21.6649 24.9369 21.6624 25.0611C21.7167 25.3605 21.8843 25.6273 22.1304 25.8062C22.1834 25.8447 22.2267 25.8952 22.2566 25.9536C22.2864 26.012 22.3021 26.0766 22.3024 26.1421C22.2802 26.4427 22.2058 26.7372 22.0824 27.0121C21.9229 27.4447 21.5996 27.7971 21.1824 27.9931L21.1504 28.0051L20.2634 28.2922C20.7794 28.6004 21.3452 28.8163 21.9354 28.9301C22.9279 29.1229 23.955 29.0239 24.8924 28.6451C25.1384 28.546 25.3765 28.428 25.6044 28.2922L24.7154 28.0012L24.6864 27.9902C24.2686 27.7953 23.9451 27.4429 23.7864 27.0101C23.6629 26.7345 23.5885 26.4394 23.5664 26.1381C23.5666 26.0728 23.5822 26.0085 23.612 25.9503C23.6417 25.8921 23.6846 25.8417 23.7374 25.8032C23.9832 25.6236 24.1507 25.3566 24.2054 25.0571C24.2031 24.9321 24.2284 24.8081 24.2796 24.694C24.3307 24.58 24.4065 24.4786 24.5014 24.3972C24.5498 24.2614 24.5869 24.122 24.6124 23.9802C24.5545 23.9424 24.5069 23.8908 24.4739 23.83C24.4409 23.7693 24.4236 23.7013 24.4234 23.6321V22.3862C24.4366 22.206 24.4043 22.0255 24.3294 21.8611C24.308 21.8226 24.2756 21.7912 24.2364 21.7712C24.1697 21.7356 24.1123 21.6848 24.0689 21.623C24.0255 21.5611 23.9972 21.4899 23.9864 21.4151C23.9825 21.3819 23.9825 21.3484 23.9864 21.3151C23.9334 21.1951 23.6864 20.9302 22.9454 20.9282C22.5562 20.9466 22.1882 21.1071 21.9094 21.3792ZM24.4014 20.5082C24.6162 20.6706 24.7701 20.9006 24.8384 21.1611C25.0027 21.3167 25.1287 21.5084 25.2062 21.721C25.2838 21.9336 25.3109 22.1613 25.2854 22.3862V23.3862C25.3234 23.4242 25.3569 23.4665 25.3854 23.5121C25.4298 23.5817 25.4635 23.6575 25.4854 23.7372C25.4971 23.7842 25.5005 23.8329 25.4954 23.8811C25.4608 24.2078 25.3793 24.5278 25.2534 24.8312C25.2171 24.9152 25.1547 24.9853 25.0754 25.0311C25.0739 25.0501 25.0739 25.0692 25.0754 25.0882C25.0754 25.1099 25.0737 25.1316 25.0704 25.1532C25.0006 25.5919 24.7875 25.9953 24.4644 26.3001C24.5304 26.5831 24.7134 27.0702 25.0124 27.2001L26.2704 27.6122C26.3227 27.6291 26.3712 27.6559 26.4134 27.6911C26.7091 27.4232 26.9719 27.1211 27.1964 26.7911C27.7534 25.9808 28.0538 25.0215 28.0584 24.0381C28.0584 24.0301 28.0584 24.0222 28.0584 24.0131C28.0587 23.3557 27.9261 22.705 27.6684 22.1001C27.4101 21.491 27.0327 20.9395 26.5584 20.4781C26.0813 20.0117 25.5173 19.6434 24.8984 19.3941C24.1201 19.0795 23.2774 18.9572 22.4418 19.0377C21.6062 19.1181 20.8023 19.3989 20.0984 19.8561C19.2607 20.3997 18.6047 21.1811 18.2144 22.1001C17.8263 23.0113 17.7248 24.0189 17.9234 24.9891C18.1221 25.9638 18.61 26.8559 19.3234 27.5492C19.3714 27.5962 19.4234 27.6421 19.4694 27.6861C19.5114 27.6514 19.5595 27.625 19.6114 27.6082L20.8694 27.2001C21.1694 27.0661 21.3504 26.5802 21.4174 26.3001C21.0937 25.9954 20.8808 25.5914 20.8124 25.1521C20.8107 25.1308 20.8107 25.1095 20.8124 25.0882C20.8138 25.0692 20.8138 25.0501 20.8124 25.0311C20.733 24.9855 20.6705 24.9153 20.6344 24.8312C20.5084 24.5278 20.4269 24.2078 20.3924 23.8811C20.3873 23.8315 20.3914 23.7813 20.4044 23.7332C20.4392 23.6021 20.5082 23.4827 20.6044 23.3871V22.3862C20.6044 22.3801 20.6044 22.3741 20.6044 22.3681C20.6306 21.7693 20.8845 21.203 21.3144 20.7852C21.7487 20.3599 22.3251 20.1106 22.9324 20.0851H22.9514C23.4685 20.0589 23.9794 20.2079 24.4014 20.5082ZM0.831367 27.7712C0.775554 27.7718 0.720158 27.7615 0.668342 27.7407C0.616525 27.72 0.569304 27.6892 0.529374 27.6502C0.489444 27.6112 0.457588 27.5647 0.435624 27.5134C0.41366 27.4621 0.40202 27.407 0.401367 27.3512L0.401367 8.32715C0.401367 8.32715 0.401367 8.32715 0.401367 8.32215C0.402555 8.23001 0.434595 8.14093 0.492367 8.06915C0.501783 8.05763 0.511797 8.04662 0.522367 8.03615L8.26137 0.486149C8.30125 0.427519 8.35496 0.379609 8.41774 0.346648C8.48053 0.313686 8.55046 0.296686 8.62137 0.297149H22.9374C22.9932 0.296488 23.0486 0.306829 23.1004 0.327579C23.1522 0.348329 23.1994 0.379083 23.2394 0.418084C23.2793 0.457086 23.3111 0.503571 23.3331 0.554884C23.3551 0.606198 23.3667 0.661336 23.3674 0.717149V16.6171C23.3674 16.7312 23.3221 16.8406 23.2414 16.9212C23.1608 17.0018 23.0514 17.0471 22.9374 17.0471C22.8233 17.0471 22.714 17.0018 22.6333 16.9212C22.5527 16.8406 22.5074 16.7312 22.5074 16.6171V1.13715H9.05037V8.32715C9.04972 8.38296 9.03807 8.4381 9.01611 8.48941C8.99415 8.54073 8.96229 8.58721 8.92236 8.62621C8.88243 8.66521 8.83521 8.69597 8.78339 8.71672C8.73158 8.73747 8.67618 8.74781 8.62037 8.74715H1.26137V26.9301H16.1144C16.2258 26.9301 16.3326 26.9744 16.4114 27.0532C16.4901 27.1319 16.5344 27.2388 16.5344 27.3501C16.5344 27.4615 16.4901 27.5684 16.4114 27.6471C16.3326 27.7259 16.2258 27.7701 16.1144 27.7701L0.831367 27.7712ZM8.19037 7.90715V1.74215L1.87037 7.90715H8.19037ZM3.42837 23.9662C3.31698 23.9662 3.21015 23.9219 3.13138 23.8431C3.05262 23.7644 3.00837 23.6575 3.00837 23.5462C3.00837 23.4348 3.05262 23.3279 3.13138 23.2492C3.21015 23.1704 3.31698 23.1262 3.42837 23.1262H8.62137C8.73276 23.1262 8.83959 23.1704 8.91835 23.2492C8.99712 23.3279 9.04137 23.4348 9.04137 23.5462C9.04137 23.6575 8.99712 23.7644 8.91835 23.8431C8.83959 23.9219 8.73276 23.9662 8.62137 23.9662H3.42837ZM3.42837 18.8932C3.31698 18.8932 3.21015 18.8489 3.13138 18.7701C3.05262 18.6914 3.00837 18.5845 3.00837 18.4732C3.00837 18.3618 3.05262 18.2549 3.13138 18.1762C3.21015 18.0974 3.31698 18.0532 3.42837 18.0532H16.2944C16.4058 18.0532 16.5126 18.0974 16.5914 18.1762C16.6701 18.2549 16.7144 18.3618 16.7144 18.4732C16.7144 18.5845 16.6701 18.6914 16.5914 18.7701C16.5126 18.8489 16.4058 18.8932 16.2944 18.8932H3.42837ZM3.42837 13.8201C3.31698 13.8201 3.21015 13.7759 3.13138 13.6971C3.05262 13.6184 3.00837 13.5115 3.00837 13.4001C3.00837 13.2888 3.05262 13.1819 3.13138 13.1032C3.21015 13.0244 3.31698 12.9801 3.42837 12.9801H9.91937C10.0308 12.9801 10.1376 13.0244 10.2164 13.1032C10.2951 13.1819 10.3394 13.2888 10.3394 13.4001C10.3394 13.5115 10.2951 13.6184 10.2164 13.6971C10.1376 13.7759 10.0308 13.8201 9.91937 13.8201H3.42837ZM16.8014 10.2611V5.42015H17.4184C17.4733 5.41584 17.528 5.43032 17.5736 5.46121C17.6192 5.4921 17.653 5.53756 17.6694 5.59015L17.7454 5.89915C17.8197 5.81926 17.8999 5.74506 17.9854 5.67715C18.0696 5.60972 18.1608 5.5514 18.2574 5.50315C18.3568 5.45358 18.4614 5.41534 18.5694 5.38915C18.6883 5.36101 18.8102 5.34724 18.9324 5.34815C19.1244 5.34511 19.3144 5.3882 19.4863 5.47382C19.6582 5.55943 19.8071 5.68506 19.9204 5.84015C20.0501 6.01681 20.1464 6.21577 20.2044 6.42715C20.2757 6.68769 20.3093 6.95708 20.3044 7.22715C20.3067 7.48531 20.2679 7.74219 20.1894 7.98815C20.1201 8.20849 20.0098 8.41376 19.8644 8.59315C19.7239 8.76611 19.5459 8.90488 19.3439 8.99895C19.1419 9.09302 18.9212 9.13993 18.6984 9.13615C18.5215 9.14078 18.3455 9.11054 18.1804 9.04715C18.0407 8.98951 17.9121 8.90796 17.8004 8.80615V10.2611H16.8014ZM18.1414 6.21315C18.0102 6.29091 17.8949 6.39268 17.8014 6.51315V8.11315C17.8842 8.21139 17.9895 8.28823 18.1084 8.33715C18.2214 8.3803 18.3414 8.402 18.4624 8.40115C18.5762 8.40281 18.6891 8.37996 18.7934 8.33415C18.8954 8.28691 18.9835 8.21425 19.0494 8.12315C19.1275 8.01258 19.1835 7.88797 19.2144 7.75615C19.2559 7.58194 19.2754 7.40321 19.2724 7.22415C19.2753 7.0502 19.2589 6.87646 19.2234 6.70615C19.1987 6.58405 19.1519 6.46748 19.0854 6.36215C19.0323 6.28004 18.9576 6.21427 18.8694 6.17215C18.7804 6.1324 18.6838 6.11261 18.5864 6.11415C18.432 6.10841 18.2787 6.14251 18.1414 6.21315ZM15.5014 9.07915C15.4222 9.08498 15.3429 9.06884 15.2724 9.03249C15.2018 8.99614 15.1426 8.941 15.1014 8.87315L14.1014 7.29715C14.0671 7.2422 14.0206 7.19598 13.9654 7.16215C13.8968 7.12961 13.8211 7.11483 13.7454 7.11915H13.3744V9.07915H12.2844V3.92915H13.9414C14.26 3.92301 14.578 3.96069 14.8864 4.04115C15.119 4.1017 15.3375 4.20737 15.5294 4.35215C15.6898 4.47656 15.8161 4.63964 15.8964 4.82615C15.9748 5.01638 16.0142 5.22041 16.0124 5.42615C16.0133 5.59037 15.9884 5.75372 15.9384 5.91015C15.89 6.06017 15.817 6.20109 15.7224 6.32715C15.6243 6.45609 15.5065 6.5688 15.3734 6.66115C15.2284 6.7624 15.0694 6.84191 14.9014 6.89715C14.9731 6.93494 15.0402 6.98091 15.1014 7.03415C15.1643 7.08987 15.2194 7.15377 15.2654 7.22415L16.4934 9.07715L15.5014 9.07915ZM13.3724 6.36715H13.9324C14.0878 6.36903 14.2426 6.34538 14.3904 6.29715C14.5073 6.25981 14.615 6.19812 14.7064 6.11615C14.7875 6.04142 14.8499 5.94856 14.8884 5.84515C14.928 5.73587 14.9476 5.62037 14.9464 5.50415C14.952 5.39662 14.9324 5.28926 14.8892 5.19064C14.8459 5.09203 14.7803 5.00488 14.6974 4.93615C14.4749 4.78571 14.2081 4.7152 13.9404 4.73615H13.3734L13.3724 6.36715Z" fill="black" fill-opacity="0.8"/>
</svg>
