<svg width="44" height="44" viewBox="0 0 44 44" fill="none" xmlns="http://www.w3.org/2000/svg">
<path d="M15.866 41.387C14.0223 40.7937 12.2947 39.8871 10.759 38.707C10.0421 38.1515 9.38072 37.5279 8.784 36.845C8.20769 36.1854 7.70474 35.4652 7.284 34.697C6.44462 33.1784 6.00292 31.4721 6 29.737C6.03565 28.9413 6.2255 28.1602 6.559 27.437C6.95928 26.5106 7.43069 25.6166 7.969 24.763C9.24831 22.7481 10.6534 20.8159 12.176 18.978C14.259 16.411 16.361 14.104 17.468 12.915H15.162C15.0294 12.915 14.9022 12.8623 14.8084 12.7685C14.7147 12.6748 14.662 12.5476 14.662 12.415C14.662 12.2824 14.7147 12.1552 14.8084 12.0614C14.9022 11.9676 15.0294 11.915 15.162 11.915H17.251C16.579 11.333 15.668 10.517 14.755 9.61697C13.8435 8.73297 12.9997 7.78162 12.231 6.77097C11.5459 5.96589 11.0866 4.99349 10.9 3.95297C10.8689 3.70286 10.8906 3.44901 10.9638 3.20784C11.0371 2.96667 11.1601 2.74357 11.325 2.55297C11.4813 2.38775 11.6718 2.25879 11.8833 2.17517C12.0948 2.09155 12.322 2.0553 12.549 2.06897C13.9978 2.25247 15.3831 2.77419 16.593 3.59197C17.386 4.04797 18.077 4.49997 18.493 4.78297C18.73 4.44197 19.093 3.93997 19.511 3.43197C19.8738 2.97991 20.275 2.56001 20.71 2.17697C21.0794 1.8022 21.5684 1.56868 22.092 1.51697C22.6157 1.56851 23.1047 1.80206 23.474 2.17697C23.9094 2.55959 24.3109 2.97915 24.674 3.43097C25.092 3.93897 25.455 4.44197 25.692 4.78197C26.11 4.49897 26.801 4.04797 27.592 3.59097C28.8016 2.77356 30.1866 2.25218 31.635 2.06897C31.8624 2.05486 32.0901 2.0908 32.3021 2.17426C32.5141 2.25771 32.7052 2.38664 32.862 2.55197C33.0269 2.74257 33.1499 2.96567 33.2232 3.20684C33.2964 3.44801 33.3181 3.70186 33.287 3.95197C33.0995 4.99278 32.6391 5.9652 31.953 6.76997C31.184 7.78073 30.3403 8.7324 29.429 9.61697C28.516 10.517 27.606 11.335 26.929 11.917H29.018C29.1506 11.917 29.2778 11.9696 29.3716 12.0634C29.4653 12.1572 29.518 12.2844 29.518 12.417C29.518 12.5496 29.4653 12.6768 29.3716 12.7705C29.2778 12.8643 29.1506 12.917 29.018 12.917H26.717C27.825 14.106 29.927 16.417 32.01 18.98C33.5323 20.8182 34.9374 22.7503 36.217 24.765C36.7551 25.6185 37.2262 26.5125 37.626 27.439C37.9598 28.1621 38.15 28.9433 38.186 29.739C38.1825 31.4737 37.7401 33.1793 36.9 34.697C36.4792 35.4651 35.9762 36.1853 35.4 36.845C34.8033 37.5279 34.1419 38.1515 33.425 38.707C31.889 39.8872 30.161 40.7938 28.317 41.387C24.2691 42.6912 19.9139 42.6912 15.866 41.387ZM12.948 19.61C11.4538 21.4137 10.0747 23.3098 8.819 25.287C8.30875 26.0944 7.86207 26.9403 7.483 27.817C7.2024 28.4208 7.03852 29.0722 7 29.737C7.00389 31.3046 7.40431 32.8457 8.164 34.217C8.54975 34.9226 9.01114 35.5842 9.54 36.19C10.0942 36.8235 10.7084 37.4018 11.374 37.917C12.8192 39.026 14.4446 39.8778 16.179 40.435C20.0242 41.6727 24.1608 41.6727 28.006 40.435C29.7404 39.8778 31.3658 39.026 32.811 37.917C33.4764 37.4011 34.0902 36.8221 34.644 36.188C35.1728 35.5828 35.6341 34.9219 36.02 34.217C36.7804 32.8452 37.1811 31.3033 37.185 29.735C37.1453 29.0708 36.9808 28.4201 36.7 27.817C36.3204 26.9397 35.8734 26.0932 35.363 25.285C34.1075 23.3076 32.7284 21.4115 31.234 19.608C28.624 16.391 25.981 13.583 25.341 12.908H18.841C18.2 13.585 15.558 16.393 12.948 19.61ZM25.38 11.91C25.82 11.55 27.274 10.341 28.731 8.89697C29.6047 8.05043 30.4136 7.13954 31.151 6.17197C31.7256 5.51601 32.1183 4.72094 32.29 3.86597C32.3086 3.75088 32.3024 3.63314 32.2717 3.52067C32.241 3.40821 32.1865 3.30362 32.112 3.21397C32.0468 3.15826 31.9707 3.11662 31.8886 3.09167C31.8066 3.06672 31.7202 3.05899 31.635 3.06897C31.0785 3.10877 30.5339 3.24974 30.028 3.48497C29.3634 3.76624 28.7177 4.09026 28.095 4.45497C26.863 5.16297 25.857 5.88097 25.848 5.88797C25.793 5.92736 25.7306 5.95519 25.6645 5.96975C25.5984 5.98431 25.5301 5.98531 25.4636 5.97269C25.3971 5.96007 25.3339 5.93409 25.2778 5.89632C25.2216 5.85855 25.1737 5.80978 25.137 5.75297C24.7509 5.16794 24.3354 4.60288 23.892 4.05997C23.5688 3.65577 23.2115 3.28006 22.824 2.93697C22.352 2.53697 22.131 2.51597 22.092 2.51597C22.053 2.51597 21.83 2.53697 21.358 2.93797C20.969 3.28288 20.6103 3.66061 20.286 4.06697C19.8446 4.60778 19.4307 5.17049 19.046 5.75297C19.0093 5.80978 18.9614 5.85855 18.9052 5.89632C18.8491 5.93409 18.7859 5.96007 18.7194 5.97269C18.6529 5.98531 18.5846 5.98431 18.5185 5.96975C18.4524 5.95519 18.39 5.92736 18.335 5.88797C18.325 5.88097 17.319 5.16197 16.087 4.45497C15.4647 4.09014 14.8193 3.76613 14.155 3.48497C13.6494 3.24982 13.1052 3.10885 12.549 3.06897C12.4638 3.05899 12.3774 3.06672 12.2954 3.09167C12.2133 3.11662 12.1372 3.15826 12.072 3.21397C11.9975 3.30366 11.9431 3.40824 11.9124 3.5207C11.8817 3.63316 11.8754 3.75088 11.894 3.86597C12.0657 4.72173 12.4588 5.51752 13.034 6.17397C13.7713 7.1416 14.5803 8.05249 15.454 8.89897C16.911 10.343 18.364 11.552 18.805 11.912L25.38 11.91ZM24.48 33.997V24.838H25.2C25.2746 24.8325 25.3486 24.8551 25.4075 24.9013C25.4663 24.9476 25.5057 25.0141 25.518 25.088L25.626 25.899C25.9031 25.5533 26.2422 25.2623 26.626 25.041C27.0232 24.8202 27.4717 24.7084 27.926 24.717C28.2966 24.711 28.6638 24.7889 29 24.945C29.3238 25.0969 29.6048 25.3268 29.818 25.614C30.0601 25.9418 30.2366 26.3132 30.338 26.708C30.4669 27.1997 30.5285 27.7067 30.521 28.215C30.5255 28.693 30.4581 29.169 30.321 29.627C30.1972 30.0366 29.9974 30.4193 29.732 30.755C29.4742 31.0812 29.1442 31.3431 28.768 31.5201C28.3918 31.6971 27.9797 31.7843 27.564 31.775C27.1927 31.7849 26.8238 31.7136 26.483 31.566C26.1836 31.4206 25.9151 31.2189 25.692 30.972V33.998L24.48 33.997ZM26.5 25.957C26.1842 26.1586 25.9091 26.4177 25.689 26.721V30.032C25.8739 30.2983 26.1224 30.5142 26.412 30.66C26.6879 30.7852 26.9881 30.8477 27.291 30.843C27.5735 30.8582 27.8554 30.8038 28.112 30.6848C28.3687 30.5657 28.5922 30.3855 28.763 30.16C29.1402 29.5843 29.3205 28.9018 29.277 28.215C29.2834 27.8285 29.2428 27.4426 29.156 27.066C29.0961 26.7849 28.9812 26.5185 28.818 26.282C28.6801 26.084 28.4906 25.9276 28.27 25.83C28.0369 25.732 27.7859 25.6836 27.533 25.688C27.1702 25.6807 26.8125 25.7745 26.5 25.959V25.957ZM22.377 31.68C22.2723 31.6865 22.1679 31.6642 22.0751 31.6153C21.9823 31.5665 21.9048 31.493 21.851 31.403L19.337 27.944C19.2736 27.8481 19.1878 27.7692 19.087 27.714C18.9602 27.6562 18.821 27.6307 18.682 27.64H17.688V31.68H16.388V21.999H19.125C19.6605 21.9896 20.1947 22.0532 20.713 22.188C21.1128 22.2877 21.4874 22.4695 21.813 22.722C22.0983 22.9459 22.3214 23.2392 22.461 23.574C22.7233 24.2355 22.7399 24.9692 22.508 25.642C22.4008 25.9354 22.2405 26.2066 22.035 26.442C21.822 26.6842 21.5681 26.8873 21.285 27.042C20.972 27.2165 20.6351 27.3442 20.285 27.421C20.4594 27.5228 20.6076 27.6639 20.718 27.833L23.542 31.677L22.377 31.68ZM17.688 26.687H19.066C19.4043 26.693 19.7414 26.6474 20.066 26.552C20.333 26.4711 20.5811 26.3378 20.796 26.16C20.9896 25.9945 21.1423 25.7864 21.242 25.552C21.343 25.3055 21.3933 25.0413 21.39 24.775C21.4059 24.5288 21.3628 24.2823 21.2641 24.0562C21.1655 23.8301 21.0143 23.6308 20.823 23.475C20.3194 23.1471 19.7224 22.9929 19.123 23.036H17.688V26.687Z" fill="black" fill-opacity="0.8"/>
</svg>
