<svg width="20" height="20" viewBox="0 0 20 20" fill="none" xmlns="http://www.w3.org/2000/svg">
<path d="M6.3661 17.75C6.26354 17.7501 6.16207 17.7291 6.06797 17.6884C5.97387 17.6476 5.88916 17.5879 5.8191 17.513C5.68306 17.3679 5.61022 17.1747 5.6166 16.976C5.62297 16.7772 5.70804 16.5891 5.8531 16.453L12.7271 10L5.8531 3.54701C5.70804 3.41094 5.62297 3.22283 5.6166 3.02405C5.61022 2.82527 5.68306 2.63209 5.8191 2.48701C5.95516 2.34195 6.14327 2.25688 6.34206 2.25051C6.54084 2.24413 6.73401 2.31697 6.8791 2.45301L14.0061 9.14301C14.1253 9.25171 14.2204 9.38407 14.2856 9.53163C14.3507 9.67919 14.3843 9.83871 14.3843 10C14.3843 10.1613 14.3507 10.3208 14.2856 10.4684C14.2204 10.6159 14.1253 10.7483 14.0061 10.857L6.8791 17.547C6.74026 17.6777 6.55674 17.7503 6.3661 17.75Z" fill="black" fill-opacity="0.5"/>
</svg>
