<svg width="121" height="20" viewBox="0 0 121 20" fill="none" xmlns="http://www.w3.org/2000/svg">
<path d="M81 16.5C84.5899 16.5 87.5 13.5899 87.5 10C87.5 6.41015 84.5899 3.5 81 3.5C77.4101 3.5 74.5 6.41015 74.5 10C74.5 13.5899 77.4101 16.5 81 16.5Z" stroke="white"/>
<path d="M114 16.5C117.59 16.5 120.5 13.5899 120.5 10C120.5 6.41015 117.59 3.5 114 3.5C110.41 3.5 107.5 6.41015 107.5 10C107.5 13.5899 110.41 16.5 114 16.5Z" stroke="white"/>
<path d="M36 10H13" stroke="#FCCD07"/>
<path d="M75 10H54" stroke="white"/>
<path d="M108 10H87" stroke="white"/>
<path d="M45 15C47.7614 15 50 12.7614 50 10C50 7.23858 47.7614 5 45 5C42.2386 5 40 7.23858 40 10C40 12.7614 42.2386 15 45 15Z" fill="#FCCD07"/>
<path d="M45 19C49.9706 19 54 14.9706 54 10C54 5.02944 49.9706 1 45 1C40.0294 1 36 5.02944 36 10C36 14.9706 40.0294 19 45 19Z" stroke="#FCCD07" stroke-width="2"/>
<path d="M45 13C46.6569 13 48 11.6569 48 10C48 8.34315 46.6569 7 45 7C43.3431 7 42 8.34315 42 10C42 11.6569 43.3431 13 45 13Z" fill="white"/>
<path d="M7 16.5C10.5899 16.5 13.5 13.5899 13.5 10C13.5 6.41015 10.5899 3.5 7 3.5C3.41015 3.5 0.5 6.41015 0.5 10C0.5 13.5899 3.41015 16.5 7 16.5Z" stroke="#FCCD07"/>
<path d="M7 14C9.20914 14 11 12.2091 11 10C11 7.79086 9.20914 6 7 6C4.79086 6 3 7.79086 3 10C3 12.2091 4.79086 14 7 14Z" fill="#FCCD07"/>
</svg>
