<svg width="126" height="20" viewBox="0 0 126 20" fill="none" xmlns="http://www.w3.org/2000/svg">
<path d="M48 16.5C51.5899 16.5 54.5 13.5899 54.5 10C54.5 6.41015 51.5899 3.5 48 3.5C44.4101 3.5 41.5 6.41015 41.5 10C41.5 13.5899 44.4101 16.5 48 16.5Z" stroke="white"/>
<path d="M84 16.5C87.5899 16.5 90.5 13.5899 90.5 10C90.5 6.41015 87.5899 3.5 84 3.5C80.4101 3.5 77.5 6.41015 77.5 10C77.5 13.5899 80.4101 16.5 84 16.5Z" stroke="white"/>
<path d="M119 16.5C122.59 16.5 125.5 13.5899 125.5 10C125.5 6.41015 122.59 3.5 119 3.5C115.41 3.5 112.5 6.41015 112.5 10C112.5 13.5899 115.41 16.5 119 16.5Z" stroke="white"/>
<path d="M42 10H19" stroke="white"/>
<path d="M78 10H55" stroke="white"/>
<path d="M113 10H90" stroke="white"/>
<path d="M10 15C12.7614 15 15 12.7614 15 10C15 7.23858 12.7614 5 10 5C7.23858 5 5 7.23858 5 10C5 12.7614 7.23858 15 10 15Z" fill="#FCCD07"/>
<path d="M10 19C14.9706 19 19 14.9706 19 10C19 5.02944 14.9706 1 10 1C5.02944 1 1 5.02944 1 10C1 14.9706 5.02944 19 10 19Z" stroke="#FCCD07" stroke-width="2"/>
<path d="M10 13C11.6569 13 13 11.6569 13 10C13 8.34315 11.6569 7 10 7C8.34315 7 7 8.34315 7 10C7 11.6569 8.34315 13 10 13Z" fill="white"/>
</svg>
