<svg width="44" height="44" viewBox="0 0 44 44" fill="none" xmlns="http://www.w3.org/2000/svg">
<path d="M34.4011 37.6791V33.8121C34.3867 32.8753 34.1705 31.9527 33.7672 31.1071C33.3639 30.2615 32.783 29.5128 32.0641 28.9121L24.1411 21.9991L32.0651 15.0861C32.7839 14.4852 33.3647 13.7365 33.7679 12.8909C34.1712 12.0453 34.3875 11.1228 34.4021 10.1861V6.32007" stroke="#2D2D2D" stroke-miterlimit="10" stroke-linejoin="round"/>
<path d="M9.26001 6.32104V10.188C9.2744 11.1248 9.49061 12.0474 9.89391 12.893C10.2972 13.7386 10.8781 14.4873 11.597 15.088L19.521 22.002L11.597 28.915C10.8782 29.5154 10.2974 30.2638 9.89405 31.109C9.49075 31.9543 9.27449 32.8766 9.26001 33.813V37.68" stroke="#2D2D2D" stroke-miterlimit="10" stroke-linejoin="round"/>
<path d="M7.56201 6.32003H36.099V2.31104H7.56201V6.32003Z" stroke="#2D2D2D" stroke-miterlimit="10" stroke-linecap="round" stroke-linejoin="round"/>
<path d="M22.0821 23.7901L29.7441 34.1311C29.9351 34.3891 29.7821 34.7971 29.4921 34.7971H14.1681C13.8781 34.7971 13.7241 34.3891 13.9161 34.1311L21.5781 23.7901C21.6053 23.748 21.6426 23.7133 21.6867 23.6894C21.7307 23.6654 21.78 23.6528 21.8301 23.6528C21.8803 23.6528 21.9296 23.6654 21.9736 23.6894C22.0176 23.7133 22.0549 23.748 22.0821 23.7901Z" stroke="#2D2D2D" stroke-miterlimit="10" stroke-linecap="round" stroke-linejoin="round"/>
<path d="M26.646 15.028L22.446 19.695C22.4076 19.7378 22.3606 19.772 22.308 19.7954C22.2555 19.8189 22.1986 19.831 22.141 19.831C22.0835 19.831 22.0266 19.8189 21.9741 19.7954C21.9215 19.772 21.8745 19.7378 21.836 19.695L17.646 15.028C17.5942 14.9698 17.5605 14.8977 17.549 14.8206C17.5376 14.7435 17.5489 14.6647 17.5816 14.594C17.6143 14.5232 17.667 14.4636 17.7332 14.4224C17.7993 14.3811 17.8761 14.3602 17.954 14.362H26.336C26.4141 14.3598 26.4912 14.3804 26.5577 14.4215C26.6241 14.4626 26.6771 14.5222 26.7101 14.593C26.7431 14.6639 26.7546 14.7428 26.7432 14.8201C26.7318 14.8974 26.698 14.9697 26.646 15.028Z" stroke="#2D2D2D" stroke-miterlimit="10" stroke-linecap="round" stroke-linejoin="round"/>
<path d="M7.90112 41.6881H36.4381V37.6791H7.90112V41.6881Z" stroke="#2D2D2D" stroke-miterlimit="10" stroke-linecap="round" stroke-linejoin="round"/>
</svg>
